<svg width="198" height="19" viewBox="0 0 198 19" fill="none" xmlns="http://www.w3.org/2000/svg">
<path d="M80.7134 2.06885H76.5723V16.9394H80.7134V2.06885Z" fill="white"/>
<path d="M71.4539 2.06885L64.2383 9.66995V2.06885H60.1953V16.9394H63.0537L70.27 9.33904V16.9394H74.313V2.06885H71.4539Z" fill="white"/>
<path d="M92.8063 12.2907C92.2753 12.8415 91.5989 13.2169 90.8624 13.3693C90.1259 13.5218 89.3624 13.4445 88.6682 13.1473C87.974 12.8501 87.3803 12.3462 86.962 11.6994C86.5437 11.0525 86.3197 10.2916 86.3181 9.51271C86.3165 8.73385 86.5374 7.97197 86.953 7.32324C87.3687 6.67452 87.9603 6.16804 88.6533 5.86776C89.3462 5.56748 90.1094 5.48685 90.8465 5.63607C91.5837 5.78528 92.2616 6.15764 92.7948 6.70613L95.5624 3.81359C92.5604 0.725416 87.6436 0.735198 84.6537 3.83595C81.6638 6.9367 81.6557 12.0629 84.6537 15.1721C87.6517 18.2812 92.586 18.2812 95.5847 15.1721L92.8063 12.2907Z" fill="white"/>
<path d="M50.5979 1.50391C49.0714 1.50363 47.5791 1.97261 46.3098 2.85152C45.0404 3.73043 44.051 4.97981 43.4667 6.44163C42.8824 7.90346 42.7294 9.51207 43.0271 11.064C43.3248 12.616 44.0598 14.0416 45.1391 15.1605C46.2185 16.2794 47.5937 17.0415 49.0908 17.3502C50.588 17.6589 52.1398 17.5004 53.5501 16.8949C54.9604 16.2893 56.1658 15.2638 57.0138 13.9481C57.8618 12.6324 58.3143 11.0855 58.3142 9.50321C58.314 7.38184 57.501 5.3474 56.054 3.8473C54.607 2.3472 52.6444 1.50428 50.5979 1.50391ZM50.5979 13.4387C49.8474 13.4388 49.1137 13.2083 48.4896 12.7761C47.8655 12.344 47.379 11.7298 47.0917 11.011C46.8044 10.2923 46.7291 9.50141 46.8755 8.73836C47.0218 7.9753 47.3832 7.27437 47.9138 6.72421C48.4445 6.17404 49.1206 5.79935 49.8567 5.64752C50.5928 5.49569 51.3558 5.57355 52.0492 5.87124C52.7426 6.16893 53.3353 6.67308 53.7523 7.31994C54.1692 7.9668 54.3918 8.72731 54.3918 9.5053C54.3916 10.5483 53.9919 11.5486 53.2804 12.2862C52.569 13.0238 51.6041 13.4383 50.5979 13.4387Z" fill="white"/>
<path d="M28.0078 6.32724H33.0446V16.9394H37.0887V6.32724H42.1255V2.06885H28.0078V6.32724Z" fill="white"/>
<path d="M187.834 17.0854V2.25488H189.953V15.2422H197.982V17.0854H187.834Z" fill="white"/>
<path d="M170.428 17.0854L177.144 2.25488H179.241L185.979 17.0854H183.754L177.758 3.44132H178.606L172.61 17.0854H170.428ZM173.288 13.3778L173.86 11.6828H182.207L182.822 13.3778H173.288Z" fill="white"/>
<path d="M163.543 17.2549C161.594 17.2549 160.061 16.697 158.945 15.5812C157.829 14.4653 157.271 12.834 157.271 10.6871V2.25488H159.39V10.6023C159.39 12.2549 159.75 13.4625 160.471 14.2252C161.205 14.9879 162.236 15.3693 163.564 15.3693C164.906 15.3693 165.937 14.9879 166.657 14.2252C167.392 13.4625 167.759 12.2549 167.759 10.6023V2.25488H169.814V10.6871C169.814 12.834 169.256 14.4653 168.14 15.5812C167.038 16.697 165.506 17.2549 163.543 17.2549Z" fill="white"/>
<path d="M148.618 17.0854V4.0981H143.533V2.25488H155.8V4.0981H150.715V17.0854H148.618Z" fill="white"/>
<path d="M128.758 17.0854L134.923 8.67437V10.3057L129.097 2.25488H131.512L136.131 8.58963L135.177 8.61081L139.775 2.25488H142.084L136.3 10.1786V8.65319L142.465 17.0854H140.029L135.114 10.3269H136.046L131.194 17.0854H128.758Z" fill="white"/>
<path d="M118.602 8.65319H126.229V10.454H118.602V8.65319ZM118.792 15.2422H127.437V17.0854H116.674V2.25488H127.14V4.0981H118.792V15.2422Z" fill="white"/>
<path d="M107.093 17.0854V4.0981H102.008V2.25488H114.275V4.0981H109.19V17.0854H107.093Z" fill="white"/>
<path d="M0 0.000301741L0 3.8519L15.156 19.0063L19.0057 19.0063V15.1637L3.84971 0.000301572L0 0.000301741Z" fill="white"/>
<path d="M19.0077 0.00244141L15.1561 0.00244141L0.00195379 15.1587L0.00195396 19.0085L3.84449 19.0085L19.0077 3.85222L19.0077 0.00244141Z" fill="white"/>
</svg>
