<svg width="198" height="19" viewBox="0 0 198 19" fill="none" xmlns="http://www.w3.org/2000/svg">
<path d="M80.7134 2.06934H76.5723V16.9399H80.7134V2.06934Z" fill="#1A1E27"/>
<path d="M71.4539 2.06934L64.2383 9.67044V2.06934H60.1953V16.9399H63.0537L70.27 9.33953V16.9399H74.313V2.06934H71.4539Z" fill="#1A1E27"/>
<path d="M92.8063 12.2912C92.2753 12.842 91.5989 13.2174 90.8624 13.3698C90.1259 13.5223 89.3624 13.445 88.6682 13.1478C87.974 12.8506 87.3803 12.3467 86.962 11.6998C86.5437 11.053 86.3197 10.2921 86.3181 9.5132C86.3165 8.73434 86.5374 7.97246 86.953 7.32373C87.3687 6.67501 87.9603 6.16853 88.6533 5.86825C89.3462 5.56797 90.1094 5.48734 90.8465 5.63656C91.5837 5.78577 92.2616 6.15813 92.7948 6.70662L95.5624 3.81408C92.5604 0.725904 87.6436 0.735686 84.6537 3.83644C81.6638 6.93718 81.6557 12.0634 84.6537 15.1725C87.6517 18.2817 92.586 18.2817 95.5847 15.1725L92.8063 12.2912Z" fill="#1A1E27"/>
<path d="M50.5979 1.50439C49.0714 1.50412 47.5791 1.97309 46.3098 2.85201C45.0404 3.73092 44.051 4.9803 43.4667 6.44212C42.8824 7.90395 42.7294 9.51256 43.0271 11.0645C43.3248 12.6165 44.0598 14.0421 45.1391 15.161C46.2185 16.2799 47.5937 17.0419 49.0908 17.3507C50.588 17.6594 52.1398 17.5009 53.5501 16.8954C54.9604 16.2898 56.1658 15.2643 57.0138 13.9486C57.8618 12.6329 58.3143 11.086 58.3142 9.5037C58.314 7.38233 57.501 5.34789 56.054 3.84779C54.607 2.34769 52.6444 1.50476 50.5979 1.50439ZM50.5979 13.4392C49.8474 13.4393 49.1137 13.2088 48.4896 12.7766C47.8655 12.3445 47.379 11.7302 47.0917 11.0115C46.8044 10.2928 46.7291 9.5019 46.8755 8.73884C47.0218 7.97579 47.3832 7.27486 47.9138 6.72469C48.4445 6.17453 49.1206 5.79984 49.8567 5.64801C50.5928 5.49618 51.3558 5.57404 52.0492 5.87173C52.7426 6.16941 53.3353 6.67357 53.7523 7.32043C54.1692 7.96729 54.3918 8.7278 54.3918 9.50579C54.3916 10.5488 53.9919 11.5491 53.2804 12.2867C52.569 13.0243 51.6041 13.4388 50.5979 13.4392Z" fill="#1A1E27"/>
<path d="M28.0078 6.32773H33.0446V16.9399H37.0887V6.32773H42.1255V2.06934H28.0078V6.32773Z" fill="#1A1E27"/>
<path d="M187.834 17.0859V2.25537H189.953V15.2427H197.982V17.0859H187.834Z" fill="#1A1E27"/>
<path d="M170.428 17.0859L177.144 2.25537H179.241L185.979 17.0859H183.754L177.758 3.44181H178.606L172.61 17.0859H170.428ZM173.288 13.3783L173.86 11.6833H182.207L182.822 13.3783H173.288Z" fill="#1A1E27"/>
<path d="M163.543 17.2554C161.594 17.2554 160.061 16.6975 158.945 15.5816C157.829 14.4658 157.271 12.8345 157.271 10.6876V2.25537H159.39V10.6028C159.39 12.2554 159.75 13.463 160.471 14.2257C161.205 14.9884 162.236 15.3698 163.564 15.3698C164.906 15.3698 165.937 14.9884 166.657 14.2257C167.392 13.463 167.759 12.2554 167.759 10.6028V2.25537H169.814V10.6876C169.814 12.8345 169.256 14.4658 168.14 15.5816C167.038 16.6975 165.506 17.2554 163.543 17.2554Z" fill="#1A1E27"/>
<path d="M148.618 17.0859V4.09859H143.533V2.25537H155.8V4.09859H150.715V17.0859H148.618Z" fill="#1A1E27"/>
<path d="M128.758 17.0859L134.923 8.67486V10.3062L129.097 2.25537H131.512L136.131 8.59012L135.177 8.6113L139.775 2.25537H142.084L136.3 10.1791V8.65368L142.465 17.0859H140.029L135.114 10.3274H136.046L131.194 17.0859H128.758Z" fill="#1A1E27"/>
<path d="M118.602 8.65368H126.229V10.4545H118.602V8.65368ZM118.792 15.2427H127.437V17.0859H116.674V2.25537H127.14V4.09859H118.792V15.2427Z" fill="#1A1E27"/>
<path d="M107.093 17.0859V4.09859H102.008V2.25537H114.275V4.09859H109.19V17.0859H107.093Z" fill="#1A1E27"/>
<path d="M0 0.000301361L0 3.8519L15.156 19.0063L19.0057 19.0063V15.1637L3.84971 0.000301193L0 0.000301361Z" fill="#1A1E27"/>
<path d="M19.0077 0.00244141L15.1561 0.00244141L0.00195379 15.1587L0.00195396 19.0085L3.84449 19.0085L19.0077 3.85222L19.0077 0.00244141Z" fill="#1A1E27"/>
</svg>
